# This file uses centimeters as units for non-parametric coordinates.

v 10.290817 75.371559 22.635807
v 21.536514 75.845322 16.681770
v 18.070816 76.423401 -9.629986
v 8.054741 75.083694 -14.153910
v 24.520859 76.949142 2.117010
v 11.105003 58.964073 22.425484
v 22.461472 59.261581 16.681772
v 18.728516 59.839657 -9.629986
v 8.079575 58.499954 -14.153910
v 25.586105 60.365398 2.117010
v 0.000000 74.926697 23.659107
v 0.000000 57.690983 23.244196
v 0.000000 74.155617 -13.593848
v 0.000000 57.264721 -13.721217
v 0.000000 49.484596 21.337833
v 10.741081 49.976997 20.441895
v 21.318871 50.308010 15.066502
v 24.179741 51.378307 2.315946
v 18.553406 50.696590 -8.552986
v 8.629372 49.721306 -11.959997
v 0.000000 49.491039 -11.527304
v 0.000000 66.734367 23.531740
v 10.456947 66.973686 22.635807
v 22.461472 67.447456 16.681770
v 25.586105 68.551270 2.117010
v 18.728516 68.025528 -9.629986
v 8.079575 66.685822 -14.153912
v 0.000000 65.450592 -13.721219
v -21.536499 75.845322 16.681770
v -10.290817 75.371559 22.635807
v -8.054718 75.083694 -14.153910
v -18.070801 76.423401 -9.629986
v -24.520844 76.949142 2.117010
v -10.456940 66.973686 22.635807
v -22.461456 67.447456 16.681770
v -22.461456 59.261581 16.681772
v -11.104980 58.964073 22.425484
v -18.728485 68.025528 -9.629986
v -8.079559 66.685822 -14.153912
v -8.079559 58.499954 -14.153910
v -18.728485 59.839657 -9.629986
v -25.586090 68.551270 2.117010
v -25.586090 60.365398 2.117010
v -10.741074 49.976997 20.441895
v -21.318848 50.308010 15.066502
v -24.179718 51.378307 2.315946
v -18.553391 50.696590 -8.552986
v -8.629349 49.721306 -11.959997
v -9.419220 82.096413 19.805992
v -19.361206 82.840698 15.912749
v -16.612854 82.594376 -7.640973
v -7.566757 81.930405 -10.237415
v -21.208023 83.006233 3.417956
v 0.000000 81.255280 20.259214
v 0.000000 81.255280 -10.284908
v 9.419243 82.096413 19.805992
v 19.361229 82.840698 15.912749
v 16.612869 82.594376 -7.640973
v 7.566780 81.930405 -10.237415
v 21.208038 83.006233 3.417956
vt 0.855204 0.116634
vt 0.851595 0.072424
vt 0.879718 0.066925
vt 0.883752 0.114926
vt 0.849488 0.483781
vt 0.853783 0.445187
vt 0.884209 0.446849
vt 0.874943 0.486877
vt 0.843813 0.021975
vt 0.869100 0.010461
vt 0.837379 0.529734
vt 0.864037 0.537179
vt 0.916055 0.112576
vt 0.911523 0.062128
vt 0.942499 0.060396
vt 0.946793 0.108382
vt 0.906439 0.493178
vt 0.916082 0.449866
vt 0.947419 0.452879
vt 0.937634 0.496458
vt 0.902581 0.005280
vt 0.935418 0.003274
vt 0.896946 0.545226
vt 0.929417 0.548757
vt 0.887052 0.154036
vt 0.858939 0.155629
vt 0.954166 0.150627
vt 0.918949 0.152238
vt 0.857877 0.414389
vt 0.888938 0.416986
vt 0.923454 0.419930
vt 0.955595 0.422649
vt 0.982622 0.105491
vt 0.987018 0.149248
vt 0.977802 0.056979
vt 0.971446 0.004769
vt 0.972978 0.501801
vt 0.965110 0.549513
vt 0.981864 0.460051
vt 0.987197 0.425299
vt 0.858953 0.194949
vt 0.887617 0.193233
vt 0.888713 0.241093
vt 0.859958 0.239899
vt 0.860553 0.344219
vt 0.886375 0.346523
vt 0.889111 0.386905
vt 0.858780 0.383385
vt 0.886329 0.296905
vt 0.859326 0.293578
vt 0.920129 0.191805
vt 0.951241 0.193147
vt 0.951847 0.240773
vt 0.920882 0.241579
vt 0.918726 0.346358
vt 0.950216 0.347739
vt 0.952655 0.391616
vt 0.921163 0.389424
vt 0.949284 0.296548
vt 0.918259 0.296385
vt 0.987257 0.193125
vt 0.987355 0.242089
vt 0.984741 0.296602
vt 0.986201 0.347192
vt 0.987827 0.390163
vn -0.216003 0.379343 0.899690
vn -0.718400 0.381890 0.581431
vn -0.762767 0.233552 0.603026
vn -0.251804 0.199173 0.947061
vn -0.577914 0.456673 -0.676362
vn -0.101449 0.450894 -0.886794
vn -0.140829 0.239144 -0.960717
vn -0.636364 0.260505 -0.726070
vn -0.718400 0.381890 0.581431
vn -0.899893 0.419318 -0.119855
vn -0.953253 0.269358 -0.136952
vn -0.762767 0.233552 0.603026
vn -0.899893 0.419318 -0.119855
vn -0.577914 0.456673 -0.676362
vn -0.636364 0.260505 -0.726070
vn -0.953253 0.269358 -0.136952
vn -0.273937 0.000791 0.961747
vn -0.790090 0.041806 0.611563
vn -0.790190 -0.099854 0.604673
vn -0.273715 -0.115989 0.954791
vn -0.663919 0.027664 -0.747292
vn -0.173249 0.006054 -0.984860
vn -0.175308 -0.107201 -0.978660
vn -0.661987 -0.071252 -0.746121
vn -0.790090 0.041806 0.611563
vn -0.986470 0.054658 -0.154561
vn -0.985761 -0.070385 -0.152716
vn -0.790190 -0.099854 0.604673
vn -0.986470 0.054658 -0.154561
vn -0.663919 0.027664 -0.747292
vn -0.661987 -0.071252 -0.746121
vn -0.985761 -0.070385 -0.152716
vn -0.216003 0.379343 0.899690
vn -0.251804 0.199173 0.947061
vn 0.000000 0.219064 0.975711
vn 0.000000 0.432846 0.901468
vn -0.273937 0.000791 0.961747
vn -0.273715 -0.115989 0.954791
vn 0.000000 -0.124890 0.992171
vn 0.000000 -0.016427 0.999865
vn -0.140829 0.239144 -0.960717
vn -0.101449 0.450894 -0.886794
vn 0.000000 0.457913 -0.888997
vn 0.000000 0.239052 -0.971007
vn -0.175308 -0.107201 -0.978660
vn -0.173249 0.006054 -0.984860
vn 0.000000 0.003677 -0.999993
vn 0.000000 -0.129708 -0.991552
vn -0.273715 -0.115989 0.954791
vn -0.275070 -0.220475 0.935803
vn 0.000000 -0.222571 0.974916
vn 0.000000 -0.124890 0.992171
vn -0.273715 -0.115989 0.954791
vn -0.790190 -0.099854 0.604673
vn -0.781366 -0.201713 0.590575
vn -0.275070 -0.220475 0.935803
vn -0.790190 -0.099854 0.604673
vn -0.985761 -0.070385 -0.152716
vn -0.979220 -0.139872 -0.146846
vn -0.781366 -0.201713 0.590575
vn -0.985761 -0.070385 -0.152716
vn -0.661987 -0.071252 -0.746121
vn -0.659641 -0.142643 -0.737920
vn -0.979220 -0.139872 -0.146846
vn -0.661987 -0.071252 -0.746121
vn -0.175308 -0.107201 -0.978660
vn -0.175366 -0.212710 -0.961250
vn -0.659641 -0.142643 -0.737920
vn 0.000000 -0.257091 -0.966387
vn -0.175366 -0.212710 -0.961250
vn -0.175308 -0.107201 -0.978660
vn 0.000000 -0.129708 -0.991552
vn -0.251804 0.199173 0.947061
vn -0.273937 0.000791 0.961747
vn 0.000000 -0.016427 0.999865
vn 0.000000 0.219064 0.975711
vn -0.251804 0.199173 0.947061
vn -0.762767 0.233552 0.603026
vn -0.790090 0.041806 0.611563
vn -0.273937 0.000791 0.961747
vn -0.762767 0.233552 0.603026
vn -0.953253 0.269358 -0.136952
vn -0.986470 0.054658 -0.154561
vn -0.790090 0.041806 0.611563
vn -0.953253 0.269358 -0.136952
vn -0.636364 0.260505 -0.726070
vn -0.663919 0.027664 -0.747292
vn -0.986470 0.054658 -0.154561
vn -0.636364 0.260505 -0.726070
vn -0.140829 0.239144 -0.960717
vn -0.173249 0.006054 -0.984860
vn -0.663919 0.027664 -0.747292
vn 0.000000 0.003677 -0.999993
vn -0.173249 0.006054 -0.984860
vn -0.140829 0.239144 -0.960717
vn 0.000000 0.239052 -0.971007
vn 0.216003 0.379342 0.899690
vn 0.251804 0.199172 0.947061
vn 0.762767 0.233552 0.603026
vn 0.718400 0.381890 0.581431
vn 0.577913 0.456674 -0.676362
vn 0.636364 0.260506 -0.726070
vn 0.140829 0.239144 -0.960717
vn 0.101449 0.450894 -0.886794
vn 0.718400 0.381890 0.581431
vn 0.762767 0.233552 0.603026
vn 0.953252 0.269358 -0.136952
vn 0.899893 0.419319 -0.119855
vn 0.899893 0.419319 -0.119855
vn 0.953252 0.269358 -0.136952
vn 0.636364 0.260506 -0.726070
vn 0.577913 0.456674 -0.676362
vn 0.273937 0.000791 0.961747
vn 0.273715 -0.115989 0.954791
vn 0.790189 -0.099854 0.604674
vn 0.790090 0.041806 0.611563
vn 0.663919 0.027664 -0.747292
vn 0.661987 -0.071252 -0.746121
vn 0.175308 -0.107201 -0.978660
vn 0.173248 0.006054 -0.984860
vn 0.790090 0.041806 0.611563
vn 0.790189 -0.099854 0.604674
vn 0.985761 -0.070385 -0.152715
vn 0.986470 0.054658 -0.154561
vn 0.986470 0.054658 -0.154561
vn 0.985761 -0.070385 -0.152715
vn 0.661987 -0.071252 -0.746121
vn 0.663919 0.027664 -0.747292
vn 0.216003 0.379342 0.899690
vn 0.000000 0.432846 0.901468
vn 0.000000 0.219064 0.975711
vn 0.251804 0.199172 0.947061
vn 0.273937 0.000791 0.961747
vn 0.000000 -0.016427 0.999865
vn 0.000000 -0.124890 0.992171
vn 0.273715 -0.115989 0.954791
vn 0.140829 0.239144 -0.960717
vn 0.000000 0.239052 -0.971007
vn 0.000000 0.457913 -0.888997
vn 0.101449 0.450894 -0.886794
vn 0.175308 -0.107201 -0.978660
vn 0.000000 -0.129708 -0.991552
vn 0.000000 0.003677 -0.999993
vn 0.173248 0.006054 -0.984860
vn 0.273715 -0.115989 0.954791
vn 0.000000 -0.124890 0.992171
vn 0.000000 -0.222571 0.974916
vn 0.275069 -0.220475 0.935803
vn 0.273715 -0.115989 0.954791
vn 0.275069 -0.220475 0.935803
vn 0.781366 -0.201714 0.590576
vn 0.790189 -0.099854 0.604674
vn 0.790189 -0.099854 0.604674
vn 0.781366 -0.201714 0.590576
vn 0.979220 -0.139872 -0.146846
vn 0.985761 -0.070385 -0.152715
vn 0.985761 -0.070385 -0.152715
vn 0.979220 -0.139872 -0.146846
vn 0.659641 -0.142643 -0.737920
vn 0.661987 -0.071252 -0.746121
vn 0.661987 -0.071252 -0.746121
vn 0.659641 -0.142643 -0.737920
vn 0.175366 -0.212710 -0.961250
vn 0.175308 -0.107201 -0.978660
vn 0.000000 -0.257091 -0.966387
vn 0.000000 -0.129708 -0.991552
vn 0.175308 -0.107201 -0.978660
vn 0.175366 -0.212710 -0.961250
vn 0.251804 0.199172 0.947061
vn 0.000000 0.219064 0.975711
vn 0.000000 -0.016427 0.999865
vn 0.273937 0.000791 0.961747
vn 0.251804 0.199172 0.947061
vn 0.273937 0.000791 0.961747
vn 0.790090 0.041806 0.611563
vn 0.762767 0.233552 0.603026
vn 0.762767 0.233552 0.603026
vn 0.790090 0.041806 0.611563
vn 0.986470 0.054658 -0.154561
vn 0.953252 0.269358 -0.136952
vn 0.953252 0.269358 -0.136952
vn 0.986470 0.054658 -0.154561
vn 0.663919 0.027664 -0.747292
vn 0.636364 0.260506 -0.726070
vn 0.636364 0.260506 -0.726070
vn 0.663919 0.027664 -0.747292
vn 0.173248 0.006054 -0.984860
vn 0.140829 0.239144 -0.960717
vn 0.000000 0.003677 -0.999993
vn 0.000000 0.239052 -0.971007
vn 0.140829 0.239144 -0.960717
vn 0.173248 0.006054 -0.984860
s off
f 49/1/1 50/2/2 29/3/3 30/4/4
f 51/5/5 52/6/6 31/7/7 32/8/8
f 50/2/9 53/9/10 33/10/11 29/3/12
f 53/11/13 51/5/14 32/8/15 33/12/16
f 34/13/17 35/14/18 36/15/19 37/16/20
f 38/17/21 39/18/22 40/19/23 41/20/24
f 35/14/25 42/21/26 43/22/27 36/15/28
f 42/23/29 38/17/30 41/20/31 43/24/32
f 49/1/33 30/4/34 11/25/35 54/26/36
f 34/13/37 37/16/38 12/27/39 22/28/40
f 31/7/41 52/6/42 55/29/43 13/30/44
f 40/19/45 39/18/46 28/31/47 14/32/48
f 37/16/49 44/33/50 15/34/51 12/27/52
f 37/16/53 36/15/54 45/35/55 44/33/56
f 36/15/57 43/22/58 46/36/59 45/35/60
f 43/24/61 41/20/62 47/37/63 46/38/64
f 41/20/65 40/19/66 48/39/67 47/37/68
f 21/40/69 48/39/70 40/19/71 14/32/72
f 30/4/73 34/13/74 22/28/75 11/25/76
f 30/4/77 29/3/78 35/14/79 34/13/80
f 29/3/81 33/10/82 42/21/83 35/14/84
f 33/12/85 32/8/86 38/17/87 42/23/88
f 32/8/89 31/7/90 39/18/91 38/17/92
f 28/31/93 39/18/94 31/7/95 13/30/96
f 56/41/97 1/42/98 2/43/99 57/44/100
f 58/45/101 3/46/102 4/47/103 59/48/104
f 57/44/105 2/43/106 5/49/107 60/50/108
f 60/50/109 5/49/110 3/46/111 58/45/112
f 23/51/113 6/52/114 7/53/115 24/54/116
f 26/55/117 8/56/118 9/57/119 27/58/120
f 24/54/121 7/53/122 10/59/123 25/60/124
f 25/60/125 10/59/126 8/56/127 26/55/128
f 56/41/129 54/26/130 11/25/131 1/42/132
f 23/51/133 22/28/134 12/27/135 6/52/136
f 4/47/137 13/30/138 55/29/139 59/48/140
f 9/57/141 14/32/142 28/31/143 27/58/144
f 6/52/145 12/27/146 15/34/147 16/61/148
f 6/52/149 16/61/150 17/62/151 7/53/152
f 7/53/153 17/62/154 18/63/155 10/59/156
f 10/59/157 18/63/158 19/64/159 8/56/160
f 8/56/161 19/64/162 20/65/163 9/57/164
f 21/40/165 14/32/166 9/57/167 20/65/168
f 1/42/169 11/25/170 22/28/171 23/51/172
f 1/42/173 23/51/174 24/54/175 2/43/176
f 2/43/177 24/54/178 25/60/179 5/49/180
f 5/49/181 25/60/182 26/55/183 3/46/184
f 3/46/185 26/55/186 27/58/187 4/47/188
f 28/31/189 13/30/190 4/47/191 27/58/192
