# This file uses centimeters as units for non-parametric coordinates.

mtllib flag_pole_trinagle_icon.mtl
g default
v 12.923035 19.373627 0.000000
v 3.707085 23.612976 0.000000
v 9.981323 18.416611 0.000000
v 7.801323 15.175461 0.000000
v 3.660179 17.747955 0.000000
v 4.755318 23.451462 0.000000
v 4.755257 17.385452 0.000000
v 7.028076 20.443985 0.000000
v 8.839104 18.621017 0.000000
v 8.839142 15.342422 0.000000
v 11.415558 17.036514 0.000000
v 10.881111 16.523834 0.000000
v 9.639862 15.673660 0.000000
v 9.519836 15.613434 0.000000
v 10.200439 16.004669 0.000000
v 10.678940 16.355179 0.000000
v 10.881111 18.516800 0.000000
v 12.439499 18.399628 0.000000
v 12.242317 18.083252 0.000000
v 11.986809 17.718079 0.000000
v 11.561882 17.196198 0.000000
v 12.416847 19.081284 0.000000
v 12.796173 19.081039 0.000000
v 12.242317 18.994141 0.000000
v 11.561752 18.710205 0.000000
v 10.200462 18.422943 0.000000
v 9.519821 18.447037 0.000000
v 5.127220 17.036667 0.000000
v 6.797249 15.379318 0.000000
v 8.158546 15.196503 0.000000
v 7.477890 15.194321 0.000000
v 6.317596 15.673660 0.000000
v 6.116608 15.851379 0.000000
v 5.673683 16.355209 0.000000
v 5.436172 16.662033 0.000000
v 8.055801 19.080963 0.000000
v 8.158440 19.000351 0.000000
v 7.428207 19.762405 0.000000
v 7.477776 19.694199 0.000000
v 6.797241 20.985962 0.000000
v 6.485092 21.806900 0.000000
v 6.746864 21.125427 0.000000
v 6.077698 22.488358 0.000000
v 6.116600 22.436127 0.000000
v 5.346413 23.169830 0.000000
v 5.435959 23.110153 0.000000
v 4.074501 17.704010 0.000000
v 4.007561 17.717346 0.000000
v 3.393929 17.734055 0.000000
v 2.713379 23.501648 0.000000
v 4.074669 23.595078 0.000000
v 3.394020 23.601166 0.000000
v 0.000000 0.000000 0.000000
v 1.058334 0.078789 0.000000
v 1.058327 2.289024 0.000000
v 4.092224 1.164162 0.000000
v 0.671455 0.031296 0.000000
v 0.671455 0.015610 0.000000
v 2.713387 2.035881 0.000000
v 2.713387 0.292610 0.000000
v 4.033440 1.362930 0.000000
v 4.074677 1.273750 0.000000
v 4.074646 1.055550 0.000000
v 3.725014 0.681473 0.000000
v 3.394043 0.513519 0.000000
v 3.394051 1.815201 0.000000
v 1.058334 1.362930 0.000000
v 2.032753 0.153297 0.000000
v 1.058334 0.681465 0.000000
v 1.352112 0.064919 0.000000
v 1.058334 2.044395 0.000000
v 2.679207 2.044395 0.000000
v 2.032753 2.174873 0.000000
v 1.352097 2.263283 0.000000
v -1.058342 2.289024 0.000000
v -1.058334 0.078789 0.000000
v -4.093117 1.165894 0.000000
v -1.370483 0.066780 0.000000
v -1.370476 2.261490 0.000000
v -1.058334 1.362930 0.000000
v -0.009186 0.000000 0.000000
v -1.058334 0.681465 0.000000
v -0.689835 0.033051 0.000000
v -0.689827 0.016510 0.000000
v -1.058334 2.044395 0.000000
v -4.033577 1.363029 0.000000
v -2.731766 0.297310 0.000000
v -2.051125 0.156372 0.000000
v -3.725075 0.681519 0.000000
v -3.412399 0.520988 0.000000
v -2.731758 2.031303 0.000000
v -2.679367 2.044395 0.000000
v -2.051117 2.171860 0.000000
v -3.412407 1.806969 0.000000
v 0.000000 2.328331 0.000000
v 0.671448 2.312714 0.000000
v -0.009186 2.328331 0.000000
v -0.689842 2.311852 0.000000
v -1.058342 24.924744 0.000000
v 1.693329 26.246658 0.000000
v -1.693436 26.245972 0.000000
v -0.000618 27.940079 0.000000
v 1.058327 24.924713 0.000000
v 0.671455 27.801514 0.000000
v 1.656815 25.895691 0.000000
v 1.342491 25.214218 0.000000
v 1.352097 25.226822 0.000000
v 1.660957 26.577148 0.000000
v 1.358093 27.258621 0.000000
v 1.352104 27.266602 0.000000
v -1.370476 25.251511 0.000000
v -1.370476 27.241486 0.000000
v -1.342552 25.214218 0.000000
v -0.009186 27.940063 0.000000
v -1.357872 27.258621 0.000000
v -0.689835 27.793579 0.000000
v -1.656952 25.895691 0.000000
v -1.661064 26.577148 0.000000
v 1.058319 16.845291 0.000000
v 1.058319 22.896805 0.000000
v 1.352127 17.005371 0.000000
v 1.411530 17.036560 0.000000
v 2.032700 17.335022 0.000000
v 2.713387 17.589157 0.000000
v 3.274780 17.718994 0.000000
v 1.351913 23.043594 0.000000
v 1.645409 23.169556 0.000000
v 2.032745 23.313385 0.000000
vt 0.933726 0.719751
vt 0.727770 0.769490
vt 0.576316 0.985594
vt 0.380626 0.423082
vt 0.530567 0.628853
vt 0.822460 0.864766
vt 0.701002 0.954258
vt 0.692829 0.958170
vt 0.788906 0.764049
vt 0.893222 0.775987
vt 0.861764 0.819993
vt 0.895708 0.730790
vt 0.742624 0.769365
vt 0.418487 0.882367
vt 0.515616 0.591969
vt 0.495503 0.536165
vt 0.471358 0.493242
vt 0.281903 0.807521
vt 0.242794 0.417267
vt 0.749000 0.003265
vt 0.749631 0.048045
vt 0.835148 0.060034
vt 0.775212 0.171281
vt 0.749188 0.032724
vt 0.779546 0.171195
vt 0.758536 0.154465
vt 0.753834 0.140756
vt 0.772974 0.051327
vt 0.747532 0.059372
vt 0.825687 0.058710
vt 0.816910 0.121401
vt 0.825458 0.097104
vt 0.912637 0.118160
vt 0.884537 0.002298
vt 0.851971 0.163093
vt 0.830503 0.125775
vt 0.891655 0.005251
vt 0.858000 0.025314
vt 0.911883 0.058229
vt 0.715860 0.359297
vt 0.714706 0.281867
vt 0.751581 0.278486
vt 0.788556 0.280617
vt 0.789869 0.357748
vt 0.788914 0.301656
vt 0.765367 0.196912
vt 0.806223 0.162773
vt 0.784469 0.271434
vt 0.824048 0.283751
vt 0.869320 0.260953
vt 0.844853 0.165435
vt 0.818160 0.160924
vt 0.771949 0.909638
vt 0.920057 0.734850
vt 0.835548 0.752286
vt 0.646561 0.975608
vt 0.508803 0.970599
vt 0.463441 0.937909
vt 0.560053 0.680045
vt 0.426186 0.446930
vt 0.373389 0.832690
vt 0.327815 0.810357
vt 0.650753 0.754199
vt 0.785792 0.898541
vt 0.739234 0.932646
vt 0.832508 0.854249
vt 0.879410 0.796264
vt 0.883122 0.735536
vt 0.696575 0.766820
vt 0.554511 0.983922
vt 0.600450 0.984615
vt 0.476791 0.950148
vt 0.434151 0.903367
vt 0.605210 0.727738
vt 0.598370 0.722168
vt 0.556786 0.675377
vt 0.398081 0.856696
vt 0.512378 0.582491
vt 0.468793 0.489670
vt 0.420210 0.442795
vt 0.323312 0.809377
vt 0.299896 0.806897
vt 0.334833 0.412580
vt 0.288877 0.411362
vt 0.310033 0.410936
vt 0.804174 0.147806
vt 0.748976 0.113239
vt 0.799332 0.055019
vt 0.816396 0.122676
vt 0.783218 0.170084
vt 0.771108 0.170012
vt 0.749837 0.032773
vt 0.747274 0.086164
vt 0.832562 0.071257
vt 0.914190 0.082075
vt 0.905843 0.030057
vt 0.914946 0.107593
vt 0.880849 0.115721
vt 0.833615 0.111596
vt 0.855646 0.113326
vt 0.831260 0.125516
vt 0.906090 0.118160
vt 0.865139 0.014227
vt 0.839535 0.074634
vt 0.833762 0.099749
vt 0.847218 0.049845
vt 0.911596 0.056229
vt 0.789316 0.325441
vt 0.777035 0.358786
vt 0.789722 0.349226
vt 0.729541 0.359652
vt 0.715460 0.326672
vt 0.715059 0.302891
vt 0.715860 0.350453
vt 0.728172 0.279977
vt 0.775670 0.279234
vt 0.751901 0.278480
vt 0.753297 0.359783
vt 0.752977 0.359789
vt 0.797226 0.278827
vt 0.869547 0.260670
vt 0.869689 0.184101
vt 0.774173 0.183105
vt 0.882233 0.231909
vt 0.797757 0.279052
vt 0.848071 0.277754
vt 0.836731 0.281871
vt 0.773115 0.184422
vt 0.880975 0.206720
vt 0.881053 0.207021
vt 0.844137 0.165146
vt 0.794238 0.167218
vt 0.123127 0.864788
vt 0.130299 0.456134
vt 0.143158 0.854326
vt 0.541011 0.003802
vt 0.550873 0.609002
vt 0.147207 0.852291
vt 0.010349 0.979124
vt 0.099831 0.979125
vt 0.189511 0.832867
vt 0.555486 0.609000
vt 0.084242 0.023164
vt 0.235779 0.816506
vt 0.602271 0.003796
vt 0.555486 0.554725
vt 0.273840 0.808397
vt 0.577198 0.390958
vt 0.150299 0.446570
vt 0.577198 0.552918
vt 0.673923 0.003802
vt 0.170271 0.438415
vt 0.623985 0.001992
vt 0.655506 0.002860
vt 0.196603 0.429164
vt 0.597100 0.392768
vt 0.687566 0.390958
vt 0.694804 0.390958
vt 0.741469 0.002422
vt 0.741716 0.002434
vt 0.722539 0.002741
vt 0.704568 0.002016
vt 0.680329 0.003191
vt 0.697330 0.003825
vt 0.680329 0.392768
vt 0.550873 0.003191
vn 0.000000 0.000000 -1.000000
vn 0.000000 0.000000 -1.000000
vn 0.000000 0.000000 -1.000000
vn 0.000000 0.000000 -1.000000
vn 0.000000 0.000000 -1.000000
vn 0.000000 0.000000 -1.000000
vn 0.000000 0.000000 -1.000000
vn 0.000000 0.000000 -1.000000
vn 0.000000 0.000000 -1.000000
vn 0.000000 0.000000 -1.000000
vn 0.000000 0.000000 -1.000000
vn 0.000000 0.000000 -1.000000
vn 0.000000 0.000000 -1.000000
vn 0.000000 0.000000 -1.000000
vn 0.000000 0.000000 -1.000000
vn 0.000000 0.000000 -1.000000
vn 0.000000 0.000000 -1.000000
vn 0.000000 0.000000 -1.000000
vn 0.000000 0.000000 -1.000000
vn 0.000000 0.000000 -1.000000
vn 0.000000 0.000000 -1.000000
vn 0.000000 0.000000 -1.000000
vn 0.000000 0.000000 -1.000000
vn 0.000000 0.000000 -1.000000
vn 0.000000 0.000000 -1.000000
vn 0.000000 0.000000 -1.000000
vn 0.000000 0.000000 -1.000000
vn 0.000000 0.000000 -1.000000
vn 0.000000 0.000000 -1.000000
vn 0.000000 0.000000 -1.000000
vn 0.000000 0.000000 -1.000000
vn 0.000000 0.000000 -1.000000
vn 0.000000 0.000000 -1.000000
vn 0.000000 0.000000 -1.000000
vn 0.000000 0.000000 -1.000000
vn 0.000000 0.000000 -1.000000
vn 0.000000 0.000000 -1.000000
vn 0.000000 0.000000 -1.000000
vn 0.000000 0.000000 -1.000000
vn 0.000000 0.000000 -1.000000
vn 0.000000 0.000000 -1.000000
vn 0.000000 0.000000 -1.000000
vn 0.000000 0.000000 -1.000000
vn 0.000000 0.000000 -1.000000
vn 0.000000 0.000000 -1.000000
vn 0.000000 0.000000 -1.000000
vn 0.000000 0.000000 -1.000000
vn 0.000000 0.000000 -1.000000
vn 0.000000 0.000000 -1.000000
vn 0.000000 0.000000 -1.000000
vn 0.000000 0.000000 -1.000000
vn 0.000000 0.000000 -1.000000
vn 0.000000 0.000000 -1.000000
vn 0.000000 0.000000 -1.000000
vn 0.000000 0.000000 -1.000000
vn 0.000000 0.000000 -1.000000
vn 0.000000 0.000000 -1.000000
vn 0.000000 0.000000 -1.000000
vn 0.000000 0.000000 -1.000000
vn 0.000000 0.000000 -1.000000
vn 0.000000 0.000000 -1.000000
vn 0.000000 0.000000 -1.000000
vn 0.000000 0.000000 -1.000000
vn 0.000000 0.000000 -1.000000
vn 0.000000 0.000000 -1.000000
vn 0.000000 0.000000 -1.000000
vn 0.000000 0.000000 -1.000000
vn 0.000000 0.000000 -1.000000
vn 0.000000 0.000000 -1.000000
vn 0.000000 0.000000 -1.000000
vn 0.000000 0.000000 -1.000000
vn 0.000000 0.000000 -1.000000
vn 0.000000 0.000000 -1.000000
vn 0.000000 0.000000 -1.000000
vn 0.000000 0.000000 -1.000000
vn 0.000000 0.000000 -1.000000
vn 0.000000 0.000000 -1.000000
vn 0.000000 0.000000 -1.000000
vn 0.000000 0.000000 -1.000000
vn 0.000000 0.000000 -1.000000
vn 0.000000 0.000000 -1.000000
vn 0.000000 0.000000 -1.000000
vn 0.000000 0.000000 -1.000000
vn 0.000000 0.000000 -1.000000
vn 0.000000 0.000000 -1.000000
vn 0.000000 0.000000 -1.000000
vn 0.000000 0.000000 -1.000000
vn 0.000000 0.000000 -1.000000
vn 0.000000 0.000000 -1.000000
vn 0.000000 0.000000 -1.000000
vn 0.000000 0.000000 -1.000000
vn 0.000000 0.000000 -1.000000
vn 0.000000 0.000000 -1.000000
vn 0.000000 0.000000 -1.000000
vn 0.000000 0.000000 -1.000000
vn 0.000000 0.000000 -1.000000
vn 0.000000 0.000000 -1.000000
vn 0.000000 0.000000 -1.000000
vn 0.000000 0.000000 -1.000000
vn 0.000000 0.000000 -1.000000
vn 0.000000 0.000000 -1.000000
vn 0.000000 0.000000 -1.000000
vn 0.000000 0.000000 -1.000000
vn 0.000000 0.000000 -1.000000
vn 0.000000 0.000000 -1.000000
vn 0.000000 0.000000 -1.000000
vn 0.000000 0.000000 -1.000000
vn 0.000000 0.000000 -1.000000
vn 0.000000 0.000000 -1.000000
vn 0.000000 0.000000 -1.000000
vn 0.000000 0.000000 -1.000000
vn 0.000000 0.000000 -1.000000
vn 0.000000 0.000000 -1.000000
vn 0.000000 0.000000 -1.000000
vn 0.000000 0.000000 -1.000000
vn 0.000000 0.000000 -1.000000
vn 0.000000 0.000000 -1.000000
vn 0.000000 0.000000 -1.000000
vn 0.000000 0.000000 -1.000000
vn 0.000000 0.000000 -1.000000
vn 0.000000 0.000000 -1.000000
vn 0.000000 0.000000 -1.000000
vn 0.000000 0.000000 -1.000000
vn 0.000000 0.000000 -1.000000
vn 0.000000 0.000000 -1.000000
vn 0.000000 0.000000 -1.000000
vn 0.000000 0.000000 -1.000000
vn 0.000000 0.000000 -1.000000
vn 0.000000 0.000000 -1.000000
vn 0.000000 0.000000 -1.000000
vn 0.000000 0.000000 -1.000000
vn 0.000000 0.000000 -1.000000
vn 0.000000 0.000000 -1.000000
vn 0.000000 0.000000 -1.000000
vn 0.000000 0.000000 -1.000000
vn 0.000000 0.000000 -1.000000
vn 0.000000 0.000000 -1.000000
vn 0.000000 0.000000 -1.000000
vn 0.000000 0.000000 -1.000000
vn 0.000000 0.000000 -1.000000
vn 0.000000 0.000000 -1.000000
vn 0.000000 0.000000 -1.000000
vn 0.000000 0.000000 -1.000000
vn 0.000000 0.000000 -1.000000
vn 0.000000 0.000000 -1.000000
vn 0.000000 0.000000 -1.000000
vn 0.000000 0.000000 -1.000000
vn 0.000000 0.000000 -1.000000
vn 0.000000 0.000000 -1.000000
vn 0.000000 0.000000 -1.000000
vn 0.000000 0.000000 -1.000000
vn 0.000000 0.000000 -1.000000
vn 0.000000 0.000000 -1.000000
vn 0.000000 0.000000 -1.000000
vn 0.000000 0.000000 -1.000000
vn 0.000000 0.000000 -1.000000
vn 0.000000 0.000000 -1.000000
vn 0.000000 0.000000 -1.000000
vn 0.000000 0.000000 -1.000000
vn 0.000000 0.000000 -1.000000
vn 0.000000 0.000000 -1.000000
vn 0.000000 0.000000 -1.000000
vn 0.000000 0.000000 -1.000000
vn 0.000000 0.000000 -1.000000
vn 0.000000 0.000000 -1.000000
vn 0.000000 0.000000 -1.000000
vn 0.000000 0.000000 -1.000000
vn 0.000000 0.000000 -1.000000
vn 0.000000 0.000000 -1.000000
vn 0.000000 0.000000 -1.000000
vn 0.000000 0.000000 -1.000000
vn 0.000000 0.000000 -1.000000
s 1
g flag_pole_triangle_icon
usemtl initialShadingGroup
f 1/1/1 23/54/2 22/12/3
s off
f 119/133/4 120/134/5 121/135/6
s 1
f 23/54/2 18/10/7 22/12/3
f 22/12/3 18/10/7 24/68/8
s off
f 121/135/9 120/134/10 122/138/11
f 122/138/12 120/134/13 123/141/14
f 123/141/15 120/134/16 124/144/17
s 1
f 24/68/8 18/10/7 25/55/18
f 18/10/7 19/67/19 25/55/18
s off
f 124/144/20 120/134/21 125/147/22
s 1
f 120/134/23 126/149/24 125/147/25
f 126/149/24 127/152/26 125/147/25
f 127/152/26 128/155/27 125/147/25
f 128/155/27 50/19/28 125/147/25
f 125/147/25 50/19/28 49/18/29
f 50/19/28 52/84/30 49/18/29
f 49/18/29 52/84/30 5/82/31
f 52/84/30 2/85/32 5/82/31
f 2/85/32 51/83/33 5/82/31
f 51/83/33 6/4/34 5/82/31
f 6/4/34 45/80/35 5/82/31
f 45/80/35 46/60/36 5/82/31
f 46/60/36 43/79/37 5/82/31
f 43/79/37 44/17/38 5/82/31
f 44/17/38 41/16/39 5/82/31
f 41/16/39 42/78/40 5/82/31
f 5/82/31 42/78/40 48/81/41
f 42/78/40 40/15/42 48/81/41
f 48/81/41 40/15/42 47/62/43
f 40/15/42 8/5/44 47/62/43
f 47/62/43 8/5/44 7/61/45
f 8/5/44 38/76/46 7/61/45
f 38/76/46 39/59/47 7/61/45
f 7/61/45 39/59/47 28/77/48
f 39/59/47 36/75/49 28/77/48
f 28/77/48 36/75/49 35/14/50
f 35/14/50 36/75/49 34/73/51
f 36/75/49 37/74/52 34/73/51
f 34/73/51 37/74/52 33/58/53
f 37/74/52 9/63/54 33/58/53
f 33/58/53 9/63/54 32/72/55
f 32/72/55 9/63/54 29/57/56
f 29/57/56 9/63/54 31/70/57
f 31/70/57 9/63/54 4/3/58
f 4/3/58 9/63/54 30/71/59
f 30/71/59 9/63/54 10/56/60
f 10/56/60 9/63/54 14/8/61
f 9/63/54 27/69/62 14/8/61
f 14/8/61 27/69/62 13/7/63
f 13/7/63 27/69/62 15/65/64
f 15/65/64 27/69/62 16/53/65
f 27/69/62 3/2/66 16/53/65
f 16/53/65 3/2/66 12/64/67
f 3/2/66 26/13/68 12/64/67
f 12/64/67 26/13/68 11/6/69
f 26/13/68 17/9/70 11/6/69
f 11/6/69 17/9/70 21/66/71
f 21/66/71 17/9/70 20/11/72
f 17/9/70 25/55/18 20/11/72
f 25/55/18 19/67/19 20/11/72
s 3
f 53/20/73 57/92/74 58/24/75
f 58/24/75 57/92/74 70/29/76
f 57/92/74 54/21/77 70/29/76
f 55/22/78 74/94/79 71/30/80
f 54/21/77 69/28/81 70/29/76
f 70/29/76 69/28/81 68/93/82
f 69/28/81 67/88/83 68/93/82
f 68/93/82 67/88/83 60/87/84
f 67/88/83 71/30/80 60/87/84
f 71/30/80 74/94/79 60/87/84
f 74/94/79 73/32/85 60/87/84
f 73/32/85 72/31/86 60/87/84
f 60/87/84 72/31/86 65/27/87
f 72/31/86 59/89/88 65/27/87
f 59/89/88 66/86/89 65/27/87
f 66/86/89 61/90/90 65/27/87
f 65/27/87 61/90/90 64/26/91
f 61/90/90 62/25/92 64/26/91
f 62/25/92 56/23/93 64/26/91
f 56/23/93 63/91/94 64/26/91
s 5
f 81/35/95 84/36/96 83/101/97
f 75/33/98 85/102/99 79/97/100
f 84/36/96 78/105/101 83/101/97
f 83/101/97 78/105/101 76/99/102
f 76/99/102 78/105/101 82/100/103
f 78/105/101 88/104/104 82/100/103
f 82/100/103 88/104/104 80/98/105
f 88/104/104 87/106/106 80/98/105
f 80/98/105 87/106/106 85/102/99
f 85/102/99 87/106/106 79/97/100
f 79/97/100 87/106/106 93/95/107
f 93/95/107 87/106/106 92/39/108
f 87/106/106 90/38/109 92/39/108
f 92/39/108 90/38/109 91/107/110
f 91/107/110 90/38/109 94/96/111
f 90/38/109 89/103/112 94/96/111
f 77/34/113 86/37/114 89/103/112
f 89/103/112 86/37/114 94/96/111
s off
f 55/163/115 96/164/116 119/165/117
s 7
f 75/166/118 99/137/119 98/136/120
f 99/140/119 103/139/121 98/143/120
f 103/142/121 120/146/122 98/145/120
s off
f 120/150/123 119/148/124 98/153/125
f 98/151/126 119/156/127 97/154/128
f 97/160/129 119/158/130 95/159/131
f 119/157/132 96/162/133 95/161/134
s 8
f 75/44/135 98/109/136 85/110/137
f 55/40/138 71/114/139 96/111/140
f 54/41/141 57/115/142 69/113/143
f 76/43/144 82/45/145 83/116/146
f 57/115/142 53/42/147 69/113/143
f 69/113/143 53/42/147 67/112/148
f 83/116/146 82/45/145 81/117/149
f 82/45/145 80/108/150 81/117/149
f 85/110/137 98/109/136 80/108/150
f 98/109/136 97/118/151 80/108/150
f 80/108/150 97/118/151 81/117/149
f 97/118/151 95/119/152 81/117/149
f 95/119/152 96/111/140 81/117/149
f 96/111/140 71/114/139 81/117/149
f 81/117/149 71/114/139 53/42/147
f 71/114/139 67/112/148 53/42/147
s 12
f 103/48/153 99/46/154 106/120/155
f 99/46/154 113/128/156 106/120/155
f 106/120/155 113/128/156 107/125/157
f 107/125/157 113/128/156 105/49/158
f 105/49/158 113/128/156 100/127/159
f 100/127/159 113/128/156 108/126/160
f 108/126/160 113/128/156 109/50/161
f 113/128/156 111/123/162 109/50/161
f 111/123/162 117/132/163 109/50/161
f 117/132/163 101/47/164 109/50/161
f 101/47/164 118/52/165 109/50/161
f 118/52/165 112/131/166 109/50/161
f 112/131/166 115/51/167 109/50/161
f 115/51/167 116/122/168 109/50/161
f 116/122/168 114/129/169 109/50/161
f 114/129/169 102/130/170 109/50/161
f 109/50/161 102/130/170 110/121/171
f 102/130/170 104/124/172 110/121/171
