# This file uses centimeters as units for non-parametric coordinates.

mtllib normal_dialog_icon.mtl
g default
v 0.000000 0.000000 0.000000
v 7.139030 5.772285 0.000001
v 0.806255 7.199409 0.000001
v 28.068777 15.790047 0.000000
v 10.330635 5.607361 0.000000
v 10.331066 25.972450 0.000000
v -7.404846 15.786644 0.000000
v 11.070366 5.616104 0.000000
v 11.070358 25.963661 0.000000
v -5.792786 11.543282 0.000000
v -4.448494 10.159370 0.000000
v -2.325840 8.657448 0.000000
v -1.492149 8.200676 0.000000
v 7.376022 5.748505 0.000000
v 1.463802 24.610100 0.000000
v -7.206867 17.314888 0.000000
v -7.247967 14.429115 0.000000
v -5.658691 20.200706 0.000000
v -4.448429 21.420464 0.000000
v -2.039135 23.086632 0.000000
v -1.492374 23.379723 0.000000
v 4.419926 25.393547 0.000000
v 7.376064 25.831520 0.000000
v 26.456980 11.543449 0.000000
v 19.200464 6.969246 0.000000
v 13.288242 5.748619 0.000000
v 16.244396 6.186737 0.000000
v 22.156561 8.200432 0.000000
v 22.990314 8.657417 0.000000
v 25.112677 10.159462 0.000000
v 19.200432 24.610069 0.000000
v 13.288158 25.831062 0.000000
v 16.244228 25.393166 0.000000
v 27.872372 17.314964 0.000000
v 27.912237 14.429024 0.000000
v 26.322618 20.200417 0.000000
v 22.156673 23.379890 0.000000
v 22.703667 23.086876 0.000000
v 25.112556 21.420479 0.000000
vt 0.224597 0.148510
vt 0.414888 0.304746
vt 0.246088 0.343373
vt 0.414888 0.304746
vt 0.499960 0.300287
vt 0.246088 0.343373
vt 0.027229 0.575799
vt 0.519678 0.851255
vt 0.070189 0.460946
vt 0.162602 0.382837
vt 0.184820 0.370466
vt 0.073764 0.695272
vt 0.106025 0.728286
vt 0.893975 0.423491
vt 0.736385 0.814620
vt 0.578795 0.847688
vt 0.829758 0.773381
vt 0.184820 0.781313
vt 0.815180 0.370467
vt 0.657590 0.835829
vt 0.929815 0.460946
vt 0.815180 0.781316
vt 0.926236 0.695272
vt 0.499972 0.851490
vt 0.106025 0.423491
vt 0.421205 0.304102
vt 0.263615 0.814619
vt 0.032498 0.617163
vt 0.031397 0.539054
vt 0.170245 0.773381
vt 0.342410 0.835826
vt 0.421205 0.847690
vt 0.519678 0.300524
vt 0.657590 0.315970
vt 0.578795 0.304106
vt 0.736385 0.337144
vt 0.837404 0.382837
vt 0.968592 0.539054
vt 0.972771 0.575891
vt 0.967528 0.617163
vt 0.893975 0.728291
vn 0.000000 -0.000000 1.000000
vn 0.000000 -0.000000 1.000000
vn 0.000000 -0.000000 1.000000
vn 0.000002 0.000000 1.000000
vn 0.000000 0.000000 1.000000
vn 0.000000 0.000000 1.000000
vn 0.000000 0.000000 1.000000
vn 0.000001 0.000000 1.000000
vn 0.000000 0.000000 1.000000
vn -0.000001 0.000000 1.000000
vn 0.000001 0.000000 1.000000
vn -0.000001 0.000000 1.000000
vn -0.000000 0.000000 1.000000
vn -0.000000 0.000000 1.000000
vn 0.000000 0.000000 1.000000
vn -0.000000 0.000000 1.000000
vn 0.000000 0.000000 1.000000
vn -0.000000 0.000000 1.000000
vn -0.000000 0.000000 1.000000
vn 0.000001 0.000000 1.000000
vn -0.000000 0.000000 1.000000
vn 0.000001 0.000000 1.000000
vn -0.000001 0.000000 1.000000
vn 0.000000 0.000000 1.000000
vn 0.000000 0.000000 1.000000
vn 0.000000 0.000000 1.000000
vn 0.000000 0.000000 1.000000
vn 0.000000 0.000000 1.000000
vn -0.000000 0.000000 1.000000
vn 0.000000 0.000000 1.000000
vn 0.000000 0.000000 1.000000
vn -0.000001 -0.000000 1.000000
vn 0.000000 0.000000 1.000000
vn -0.000000 0.000000 1.000000
vn 0.000000 0.000000 1.000000
vn -0.000001 0.000000 1.000000
vn 0.000000 0.000000 1.000000
vn -0.000000 0.000000 1.000000
vn -0.000001 0.000000 1.000000
vn 0.000000 0.000000 1.000000
vn 0.000000 0.000000 1.000000
s off
g nurbsToPoly1
usemtl initialShadingGroup
f 2/2/1 3/3/2 1/1/3
s 1
f 34/40/4 36/23/5 4/39/6
f 4/39/6 36/23/5 35/38/7
f 35/38/7 36/23/5 24/21/8
f 24/21/8 36/23/5 30/14/9
f 36/23/5 39/41/10 30/14/9
f 30/14/9 39/41/10 29/37/11
f 39/41/10 38/17/12 29/37/11
f 29/37/11 38/17/12 28/19/13
f 28/19/13 38/17/12 25/36/14
f 38/17/12 37/22/15 25/36/14
f 37/22/15 31/15/16 25/36/14
f 25/36/14 31/15/16 27/34/17
f 31/15/16 33/20/18 27/34/17
f 27/34/17 33/20/18 26/35/19
f 33/20/18 32/16/20 26/35/19
f 26/35/19 32/16/20 8/33/21
f 32/16/20 9/8/22 8/33/21
f 8/33/21 9/8/22 5/5/23
f 5/5/23 9/8/22 14/26/24
f 9/8/22 6/24/25 14/26/24
f 6/24/25 23/32/26 14/26/24
f 23/32/26 22/31/27 14/26/24
f 14/26/24 22/31/27 2/4/28
f 2/4/28 22/31/27 3/6/29
f 22/31/27 15/27/30 3/6/29
f 15/27/30 21/18/31 3/6/29
f 3/6/29 21/18/31 13/11/32
f 21/18/31 20/30/33 13/11/32
f 20/30/33 19/13/34 13/11/32
f 13/11/32 19/13/34 12/10/35
f 12/10/35 19/13/34 11/25/36
f 19/13/34 18/12/37 11/25/36
f 18/12/37 16/28/38 11/25/36
f 11/25/36 16/28/38 10/9/39
f 16/28/38 7/7/40 10/9/39
f 7/7/40 17/29/41 10/9/39
