# This file uses centimeters as units for non-parametric coordinates.

mtllib head_icon.mtl
g default
v 7.998161 17.790405 0.000000
v 8.001274 22.924828 0.000000
v 8.011574 21.509621 0.000000
v 8.013947 19.671082 0.000000
v 8.011749 21.881477 0.000000
v 9.444557 22.888420 0.000000
v 8.553841 23.123268 0.000000
v 8.499779 23.123100 0.000000
v 9.207726 23.123344 0.000000
v 9.260902 23.123787 0.000000
v 9.444557 16.849342 0.000000
v 7.998329 16.499619 0.000000
v 8.351341 16.098900 0.000000
v 9.083237 16.232750 0.000000
v 8.094109 16.232887 0.000000
v 8.238449 16.123871 0.000000
v 8.013786 19.978935 0.000000
v 9.444557 19.978935 0.000000
v 9.444557 17.481575 0.000000
v 7.998169 17.481575 0.000000
v 8.011032 18.730255 0.000000
v 9.444557 18.730255 0.000000
v 8.011772 21.227623 0.000000
v 9.444557 21.227623 0.000000
v 8.009399 22.476303 0.000000
v 9.444557 22.476303 0.000000
v 8.238426 23.104416 0.000000
v 3.901604 6.593262 0.000000
v 0.000000 0.000000 0.000000
v -3.966446 6.566216 0.000000
v -0.015228 6.000977 0.000000
v -0.078453 6.000832 0.000000
v -0.204308 0.338226 0.000000
v -0.204308 6.001404 0.000000
v 2.216751 3.746056 0.000000
v 2.207909 3.731110 0.000000
v 0.738914 1.248688 0.000000
v 1.477829 2.497368 0.000000
v 1.001801 1.692924 0.000000
v 2.207909 6.192421 0.000000
v 2.955666 4.994736 0.000000
v 3.694580 6.243423 0.000000
v 2.490540 6.243423 0.000000
v 3.414017 5.769287 0.000000
v 3.414017 6.454033 0.000000
v 1.001801 6.043159 0.000000
v -2.262871 3.746056 0.000000
v -0.754295 1.248688 0.000000
v -1.508583 2.497368 0.000000
v -1.410416 2.334869 0.000000
v -2.616524 4.331505 0.000000
v -2.616524 6.237953 0.000000
v -1.410416 6.065437 0.000000
v -3.017166 4.994736 0.000000
v -3.771454 6.243423 0.000000
v -2.645248 6.243423 0.000000
v -3.822632 6.328148 0.000000
v -3.822632 6.524162 0.000000
v -8.441277 22.800194 0.000000
v -8.441277 18.302177 0.000000
v -8.446800 21.588272 0.000000
v -8.447098 22.020622 0.000000
v -8.449158 19.775406 0.000000
v -8.441277 22.855797 0.000000
v -9.853065 22.828346 0.000000
v -8.714378 16.065933 0.000000
v -8.441391 16.824646 0.000000
v -8.441452 16.578461 0.000000
v -9.852608 16.930916 0.000000
v -9.852638 16.852287 0.000000
v -8.867157 23.088196 0.000000
v -9.369995 23.088966 0.000000
v -8.566986 23.087837 0.000000
v -8.679062 23.088768 0.000000
v -8.441078 22.914040 0.000000
v -8.486481 16.232964 0.000000
v -9.440468 16.232864 0.000000
v -8.646988 16.076859 0.000000
v -8.449089 19.978935 0.000000
v -9.852486 19.978935 0.000000
v -8.441299 17.481575 0.000000
v -9.852394 17.481575 0.000000
v -8.445663 18.730255 0.000000
v -9.852409 18.730255 0.000000
v -8.447121 21.227623 0.000000
v -9.852654 21.227623 0.000000
v -8.445625 22.476303 0.000000
v -9.852943 22.476303 0.000000
v -8.647064 23.088760 0.000000
v 7.998169 22.888420 0.000000
v 7.998169 19.978935 0.000000
v 7.998169 18.730255 0.000000
v 7.998169 21.227623 0.000000
v 7.998169 22.476303 0.000000
v -6.986969 29.483574 0.000000
v 6.551704 29.453712 0.000000
v -0.183327 32.465775 0.000000
v -0.059601 6.966125 0.000000
v 0.119087 6.964111 0.000000
v -0.049232 6.966125 0.000000
v -0.054420 6.966003 0.000000
v -0.228569 6.964073 0.000000
v 7.925705 16.232872 0.000000
v -8.357819 16.232887 0.000000
v -0.204308 6.964119 0.000000
v 2.744446 7.492363 0.000000
v 2.207771 7.285751 0.000000
v 1.001762 7.017181 0.000000
v 4.620483 8.780289 0.000000
v 6.390854 11.238159 0.000000
v 5.636253 9.989395 0.000000
v 5.826256 10.271042 0.000000
v 7.437805 13.735512 0.000000
v 7.032150 12.632530 0.000000
v 6.972588 12.486877 0.000000
v 7.760384 14.984360 0.000000
v 4.579391 8.740417 0.000000
v 3.414040 7.840401 0.000000
v -2.932266 7.491455 0.000000
v -2.616814 7.368111 0.000000
v -1.410522 7.056793 0.000000
v -5.028290 8.882095 0.000000
v -4.876572 8.741280 0.000000
v -3.822632 7.949295 0.000000
v -6.799324 11.238144 0.000000
v -6.002426 9.989609 0.000000
v -6.234772 10.315781 0.000000
v -7.873703 13.735542 0.000000
v -7.440956 12.577560 0.000000
v -7.402779 12.486839 0.000000
v -8.195007 14.984215 0.000000
v -0.204308 32.465759 0.000000
v 7.965553 23.724991 0.000000
v 7.990555 17.481567 0.000000
v 4.620117 31.306854 0.000000
v 7.357376 27.471039 0.000000
v 7.851387 24.973679 0.000000
v 7.654922 26.222359 0.000000
v 6.199951 29.968414 0.000000
v 7.032341 28.445915 0.000000
v 6.921089 28.719719 0.000000
v 4.766945 31.217087 0.000000
v 5.826233 30.381989 0.000000
v 2.207939 32.227303 0.000000
v 3.414024 31.878380 0.000000
v 1.001785 32.411491 0.000000
v -8.405281 23.724991 0.000000
v -8.441277 19.978935 0.000000
v -8.424469 17.481575 0.000000
v -8.441277 18.730255 0.000000
v -8.441277 21.227623 0.000000
v -5.028740 31.318619 0.000000
v -2.616562 32.224823 0.000000
v -1.410408 32.408928 0.000000
v -3.822647 31.879852 0.000000
v -7.808342 27.471046 0.000000
v -8.295013 24.973663 0.000000
v -8.102219 26.222290 0.000000
v -6.649612 29.968414 0.000000
v -7.440994 28.557861 0.000000
v -7.374046 28.719719 0.000000
v -5.197701 31.217079 0.000000
v -6.234848 30.417381 0.000000
vt 0.077489 0.446026
vt 0.077382 0.618785
vt 0.079110 0.508238
vt 0.078003 0.583334
vt 0.028599 0.616147
vt 0.060319 0.624983
vt 0.034565 0.624308
vt 0.076789 0.404380
vt 0.065189 0.391622
vt 0.068848 0.392371
vt 0.647063 0.176609
vt 0.792895 0.030125
vt 0.941150 0.176008
vt 0.793464 0.163450
vt 0.710038 0.113352
vt 0.765276 0.057867
vt 0.737657 0.085610
vt 0.654801 0.168836
vt 0.699805 0.168836
vt 0.849282 0.085610
vt 0.845612 0.081999
vt 0.890694 0.168715
vt 0.935775 0.170719
vt 0.710424 0.611035
vt 0.710205 0.461590
vt 0.709897 0.585457
vt 0.709796 0.510692
vt 0.710448 0.612857
vt 0.720763 0.387314
vt 0.711134 0.412376
vt 0.757996 0.416829
vt 0.758046 0.414209
vt 0.740983 0.620100
vt 0.714688 0.620411
vt 0.718355 0.620392
vt 0.713066 0.392707
vt 0.756807 0.476536
vt 0.709616 0.559036
vt 0.756542 0.599825
vt 0.140747 0.878191
vt 0.083779 0.629956
vt 0.082195 0.436803
vt 0.383767 0.024217
vt 0.705168 0.451073
vt 0.278081 0.045013
vt 0.141072 0.188055
vt 0.102173 0.282998
vt 0.208940 0.092863
vt 0.481165 0.038660
vt 0.572985 0.095279
vt 0.527025 0.060309
vt 0.619128 0.149222
vt 0.665513 0.234533
vt 0.694817 0.325466
vt 0.214502 0.947779
vt 0.109488 0.803378
vt 0.089991 0.708915
vt 0.122108 0.840211
vt 0.705301 0.467288
vt 0.488918 0.980271
vt 0.586372 0.941284
vt 0.079119 0.518753
vt 0.077539 0.603528
vt 0.041636 0.396351
vt 0.078925 0.476430
vt 0.073564 0.395817
vt 0.030618 0.436892
vt 0.030269 0.416467
vt 0.077321 0.436059
vt 0.031343 0.477259
vt 0.031158 0.518445
vt 0.030269 0.560168
vt 0.078552 0.561150
vt 0.078325 0.570715
vt 0.029064 0.602214
vt 0.069170 0.624612
vt 0.058492 0.624941
vt 0.036369 0.624334
vt 0.755450 0.164387
vt 0.800531 0.037640
vt 0.890694 0.126359
vt 0.905668 0.141094
vt 0.935775 0.175074
vt 0.800531 0.163460
vt 0.795827 0.163447
vt 0.755450 0.067737
vt 0.710369 0.113020
vt 0.682420 0.141094
vt 0.665288 0.158303
vt 0.710369 0.167703
vt 0.665288 0.173516
vt 0.821088 0.057867
vt 0.877475 0.113352
vt 0.845612 0.164882
vt 0.891767 0.168836
vt 0.933862 0.168836
vt 0.757608 0.435128
vt 0.756241 0.517811
vt 0.755996 0.558885
vt 0.756687 0.611358
vt 0.724514 0.620290
vt 0.718519 0.387630
vt 0.744761 0.393368
vt 0.711310 0.404175
vt 0.710701 0.434257
vt 0.710104 0.475847
vt 0.709750 0.517494
vt 0.709702 0.571075
vt 0.710072 0.600551
vt 0.717307 0.620406
vt 0.710467 0.614767
vt 0.298352 0.037020
vt 0.169280 0.140509
vt 0.640797 0.183990
vt 0.682262 0.278265
vt 0.097825 0.756162
vt 0.168522 0.913125
vt 0.701369 0.372716
vt 0.705688 0.514586
vt 0.706076 0.561884
vt 0.580004 0.945184
vt 0.443288 0.987625
vt 0.534495 0.966823
vt 0.684074 0.798569
vt 0.640973 0.893529
vt 0.384160 0.024214
vt 0.343963 0.026474
vt 0.377389 0.024193
vt 0.383963 0.024211
vt 0.162167 0.151239
vt 0.119415 0.235546
vt 0.117203 0.241083
vt 0.084458 0.377769
vt 0.090336 0.330414
vt 0.252818 0.058405
vt 0.207396 0.094386
vt 0.435369 0.027235
vt 0.389642 0.024094
vt 0.390561 0.024085
vt 0.493154 0.043237
vt 0.567194 0.089991
vt 0.610227 0.136937
vt 0.664039 0.231108
vt 0.397619 0.990158
vt 0.396824 0.990166
vt 0.082873 0.519722
vt 0.082387 0.425100
vt 0.082486 0.472412
vt 0.085275 0.661641
vt 0.083672 0.631336
vt 0.083261 0.567032
vt 0.083650 0.614342
vt 0.126409 0.850550
vt 0.154234 0.897577
vt 0.208912 0.944425
vt 0.306167 0.981886
vt 0.260370 0.969049
vt 0.351914 0.988483
vt 0.706573 0.621449
vt 0.704278 0.419995
vt 0.694811 0.751176
vt 0.705502 0.656489
vt 0.701719 0.703821
vt 0.668019 0.846003
vt 0.653599 0.875058
vt 0.670504 0.839851
vt 0.625405 0.910666
vn 0.000000 0.000000 -1.000000
vn 0.000000 0.000000 -1.000000
vn 0.000000 0.000000 -1.000000
vn 0.000000 0.000000 -1.000000
vn 0.000000 0.000000 -1.000000
vn 0.000000 0.000000 -1.000000
vn 0.000000 0.000000 -1.000000
vn 0.000000 0.000000 -1.000000
vn 0.000000 0.000000 -1.000000
vn 0.000000 0.000000 -1.000000
vn 0.000000 0.000000 -1.000000
vn 0.000000 0.000000 -1.000000
vn 0.000000 0.000000 -1.000000
vn 0.000000 0.000000 -1.000000
vn 0.000000 0.000000 -1.000000
vn 0.000000 0.000000 -1.000000
vn 0.000000 0.000000 -1.000000
vn 0.000000 0.000000 -1.000000
vn 0.000000 0.000000 -1.000000
vn 0.000000 0.000000 -1.000000
vn 0.000000 0.000000 -1.000000
vn 0.000000 0.000000 -1.000000
vn 0.000000 0.000000 -1.000000
vn 0.000000 0.000000 -1.000000
vn 0.000000 0.000000 -1.000000
vn 0.000000 0.000000 -1.000000
vn 0.000000 0.000000 -1.000000
vn 0.000000 0.000000 -1.000000
vn 0.000000 0.000000 -1.000000
vn 0.000000 0.000000 -1.000000
vn 0.000000 0.000000 -1.000000
vn 0.000000 0.000000 -1.000000
vn 0.000000 0.000000 -1.000000
vn 0.000000 0.000000 -1.000000
vn 0.000000 0.000000 -1.000000
vn 0.000000 0.000000 -1.000000
vn 0.000000 0.000000 -1.000000
vn 0.000000 0.000000 -1.000000
vn 0.000000 0.000000 -1.000000
vn 0.000000 0.000000 -1.000000
vn 0.000000 0.000000 -1.000000
vn 0.000000 0.000000 -1.000000
vn 0.000000 0.000000 -1.000000
vn 0.000000 0.000000 -1.000000
vn 0.000000 0.000000 -1.000000
vn 0.000000 0.000000 -1.000000
vn 0.000000 0.000000 -1.000000
vn 0.000000 0.000000 -1.000000
vn 0.000000 0.000000 -1.000000
vn 0.000000 0.000000 -1.000000
vn 0.000000 0.000000 -1.000000
vn 0.000000 0.000000 -1.000000
vn 0.000000 0.000000 -1.000000
vn 0.000000 0.000000 -1.000000
vn 0.000000 0.000000 -1.000000
vn 0.000000 0.000000 -1.000000
vn 0.000000 0.000000 -1.000000
vn 0.000000 0.000000 -1.000000
vn 0.000000 0.000000 -1.000000
vn 0.000000 0.000000 -1.000000
vn 0.000000 0.000000 -1.000000
vn 0.000000 0.000000 -1.000000
vn 0.000000 0.000000 -1.000000
vn 0.000000 0.000000 -1.000000
vn 0.000000 0.000000 -1.000000
vn 0.000000 0.000000 -1.000000
vn 0.000000 0.000000 -1.000000
vn 0.000000 0.000000 -1.000000
vn 0.000000 0.000000 -1.000000
vn 0.000000 0.000000 -1.000000
vn 0.000000 0.000000 -1.000000
vn 0.000000 0.000000 -1.000000
vn 0.000000 0.000000 -1.000000
vn 0.000000 0.000000 -1.000000
vn 0.000000 0.000000 -1.000000
vn 0.000000 0.000000 -1.000000
vn 0.000000 0.000000 -1.000000
vn 0.000000 0.000000 -1.000000
vn 0.000000 0.000000 -1.000000
vn 0.000000 0.000000 -1.000000
vn 0.000000 0.000000 -1.000000
vn 0.000000 0.000000 -1.000000
vn 0.000000 0.000000 -1.000000
vn 0.000000 0.000000 -1.000000
vn 0.000000 0.000000 -1.000000
vn 0.000000 0.000000 -1.000000
vn 0.000000 0.000000 -1.000000
vn 0.000000 0.000000 -1.000000
vn 0.000000 0.000000 -1.000000
vn 0.000000 0.000000 -1.000000
vn 0.000000 0.000000 -1.000000
vn 0.000000 0.000000 -1.000000
vn 0.000000 0.000000 -1.000000
vn 0.000000 0.000000 -1.000000
vn 0.000000 0.000000 -1.000000
vn 0.000000 0.000000 -1.000000
vn 0.000000 0.000000 -1.000000
vn 0.000000 0.000000 -1.000000
vn 0.000000 0.000000 -1.000000
vn 0.000000 0.000000 -1.000000
vn 0.000000 0.000000 -1.000000
vn 0.000000 0.000000 -1.000000
vn 0.000000 0.000000 -1.000000
vn 0.000000 0.000000 -1.000000
vn 0.000000 0.000000 -1.000000
vn 0.000000 0.000000 -1.000000
vn 0.000000 0.000000 -1.000000
vn 0.000000 0.000000 -1.000000
vn 0.000000 0.000000 -1.000000
vn 0.000000 0.000000 -1.000000
vn 0.000000 0.000000 -1.000000
vn 0.000000 0.000000 -1.000000
vn 0.000000 0.000000 -1.000000
vn 0.000000 0.000000 -1.000000
vn 0.000000 0.000000 -1.000000
vn 0.000000 0.000000 -1.000000
vn 0.000000 0.000000 -1.000000
vn 0.000000 0.000000 -1.000000
vn 0.000000 0.000000 -1.000000
vn 0.000000 0.000000 -1.000000
vn 0.000000 0.000000 -1.000000
vn 0.000000 0.000000 -1.000000
vn 0.000000 0.000000 -1.000000
vn 0.000000 0.000000 -1.000000
vn 0.000000 0.000000 -1.000000
vn 0.000000 0.000000 -1.000000
vn 0.000000 0.000000 -1.000000
vn 0.000000 0.000000 -1.000000
vn 0.000000 0.000000 -1.000000
vn 0.000000 0.000000 -1.000000
vn 0.000000 0.000000 -1.000000
vn 0.000000 0.000000 -1.000000
vn 0.000000 0.000000 -1.000000
vn 0.000000 0.000000 -1.000000
vn 0.000000 0.000000 -1.000000
vn 0.000000 0.000000 -1.000000
vn 0.000000 0.000000 -1.000000
vn 0.000000 0.000000 -1.000000
vn 0.000000 0.000000 -1.000000
vn 0.000000 0.000000 -1.000000
vn 0.000000 0.000000 -1.000000
vn 0.000000 0.000000 -1.000000
vn 0.000000 0.000000 -1.000000
vn 0.000000 0.000000 -1.000000
vn 0.000000 0.000000 -1.000000
vn 0.000000 0.000000 -1.000000
vn 0.000000 0.000000 -1.000000
vn 0.000000 0.000000 -1.000000
vn 0.000000 0.000000 -1.000000
vn 0.000000 0.000000 -1.000000
vn 0.000000 0.000000 -1.000000
vn 0.000000 0.000000 -1.000000
vn 0.000000 0.000000 -1.000000
vn 0.000000 0.000000 -1.000000
vn 0.000000 0.000000 -1.000000
vn 0.000000 0.000000 -1.000000
vn 0.000000 0.000000 -1.000000
vn 0.000000 0.000000 -1.000000
vn 0.000000 0.000000 -1.000000
vn 0.000000 0.000000 -1.000000
vn 0.000000 0.000000 -1.000000
vn 0.000000 0.000000 -1.000000
vn 0.000000 0.000000 -1.000000
vn 0.000000 0.000000 -1.000000
vn 0.000000 0.000000 -1.000000
vn 0.000000 0.000000 -1.000000
vn 0.000000 0.000000 -1.000000
s 1
g head_icon
usemtl initialShadingGroup
f 2/2/1 27/76/2 25/63/3
f 27/76/2 8/6/4 25/63/3
f 10/7/5 6/5/6 9/78/7
f 14/64/8 13/9/9 11/68/10
f 11/68/10 13/9/9 19/67/11
f 13/9/9 16/10/12 19/67/11
f 16/10/12 15/66/13 19/67/11
f 15/66/13 12/8/14 19/67/11
f 12/8/14 20/69/15 19/67/11
f 19/67/11 20/69/15 22/70/16
f 20/69/15 1/1/17 22/70/16
f 1/1/17 21/65/18 22/70/16
f 22/70/16 21/65/18 18/71/19
f 21/65/18 4/3/20 18/71/19
f 4/3/20 17/62/21 18/71/19
f 18/71/19 17/62/21 24/72/22
f 17/62/21 23/73/23 24/72/22
f 24/72/22 23/73/23 26/75/24
f 23/73/23 3/74/25 26/75/24
f 3/74/25 5/4/26 26/75/24
f 5/4/26 25/63/3 26/75/24
f 25/63/3 8/6/4 26/75/24
f 8/6/4 7/77/27 26/75/24
f 26/75/24 7/77/27 6/5/6
f 7/77/27 9/78/7 6/5/6
s 4
f 28/11/28 42/18/29 45/91/30
f 30/13/31 58/83/32 57/23/33
f 29/12/34 33/80/35 37/16/36
f 33/80/35 48/92/37 37/16/36
f 58/83/32 56/95/38 57/23/33
f 57/23/33 56/95/38 55/96/39
f 55/96/39 56/95/38 54/82/40
f 42/18/29 44/89/41 45/91/30
f 45/91/30 44/89/41 43/19/42
f 44/89/41 41/88/43 43/19/42
f 56/95/38 52/22/44 54/82/40
f 52/22/44 53/94/45 54/82/40
f 54/82/40 53/94/45 51/81/46
f 43/19/42 41/88/43 40/90/47
f 40/90/47 41/88/43 46/79/48
f 41/88/43 35/15/49 46/79/48
f 46/79/48 35/15/49 31/14/50
f 35/15/49 36/87/51 31/14/50
f 36/87/51 38/17/52 31/14/50
f 31/14/50 38/17/52 32/85/53
f 32/85/53 38/17/52 34/84/54
f 51/81/46 53/94/45 47/93/55
f 53/94/45 34/84/54 47/93/55
f 34/84/54 38/17/52 47/93/55
f 47/93/55 38/17/52 49/20/56
f 38/17/52 39/86/57 49/20/56
f 49/20/56 39/86/57 50/21/58
f 39/86/57 37/16/36 50/21/58
f 37/16/36 48/92/37 50/21/58
s 7
f 65/100/59 72/33/60 88/39/61
f 73/34/62 75/111/63 89/110/64
f 72/33/60 71/101/65 88/39/61
f 88/39/61 71/101/65 86/99/66
f 71/101/65 74/35/67 86/99/66
f 74/35/67 89/110/64 86/99/66
f 89/110/64 75/111/63 86/99/66
f 75/111/63 64/28/68 86/99/66
f 64/28/68 59/24/69 86/99/66
f 59/24/69 87/109/70 86/99/66
f 87/109/70 62/26/71 86/99/66
f 62/26/71 61/108/72 86/99/66
f 61/108/72 85/38/73 86/99/66
f 85/38/73 79/107/74 86/99/66
f 86/99/66 79/107/74 80/98/75
f 79/107/74 63/27/76 80/98/75
f 80/98/75 63/27/76 84/37/77
f 63/27/76 83/106/78 84/37/77
f 84/37/77 83/106/78 82/97/79
f 83/106/78 60/25/80 82/97/79
f 60/25/80 81/105/81 82/97/79
f 81/105/81 67/30/82 82/97/79
f 82/97/79 67/30/82 69/31/83
f 69/31/83 67/30/82 70/32/84
f 70/32/84 67/30/82 77/103/85
f 67/30/82 68/104/86 77/103/85
f 68/104/86 76/36/87 77/103/85
f 78/102/88 66/29/89 76/36/87
f 76/36/87 66/29/89 77/103/85
s 9
f 98/126/90 100/43/91 99/128/92
f 59/159/93 147/162/94 151/120/95
f 147/162/94 157/163/96 151/120/95
f 157/163/96 158/161/97 151/120/95
f 158/161/97 156/124/98 151/120/95
f 156/124/98 160/166/99 151/120/95
f 160/166/99 161/164/100 151/120/95
f 161/164/100 95/165/101 151/120/95
f 95/165/101 159/125/102 151/120/95
f 159/125/102 163/167/103 151/120/95
f 163/167/103 162/61/104 151/120/95
f 162/61/104 152/121/105 151/120/95
f 152/121/105 155/123/106 151/120/95
f 155/123/106 153/60/107 151/120/95
f 153/60/107 154/122/108 151/120/95
f 154/122/108 132/144/109 151/120/95
f 132/144/109 97/145/110 151/120/95
f 97/145/110 146/158/111 151/120/95
f 146/158/111 144/156/112 151/120/95
f 144/156/112 145/157/113 151/120/95
f 145/157/113 135/55/114 151/120/95
f 135/55/114 142/155/115 151/120/95
f 142/155/115 143/117/116 151/120/95
f 143/117/116 139/154/117 151/120/95
f 139/154/117 96/40/118 151/120/95
f 96/40/118 141/153/119 151/120/95
f 141/153/119 140/58/120 151/120/95
f 140/58/120 136/56/121 151/120/95
f 136/56/121 138/116/122 151/120/95
f 138/116/122 137/57/123 151/120/95
f 137/57/123 133/149/124 151/120/95
f 133/149/124 2/150/125 151/120/95
f 2/150/125 90/41/126 151/120/95
f 90/41/126 94/152/127 151/120/95
f 94/152/127 93/151/128 151/120/95
f 93/151/128 91/146/129 151/120/95
f 151/120/95 91/146/129 148/119/130
f 91/146/129 92/148/131 148/119/130
f 148/119/130 92/148/131 150/59/132
f 92/148/131 1/42/133 150/59/132
f 150/59/132 1/42/133 60/44/134
f 60/44/134 1/42/133 149/160/135
f 1/42/133 134/147/136 149/160/135
f 134/147/136 103/133/137 149/160/135
f 149/160/135 103/133/137 104/118/138
f 103/133/137 116/134/139 104/118/138
f 104/118/138 116/134/139 131/54/140
f 116/134/139 113/47/141 131/54/140
f 131/54/140 113/47/141 128/115/142
f 113/47/141 114/132/143 128/115/142
f 128/115/142 114/132/143 129/53/144
f 114/132/143 115/131/145 129/53/144
f 115/131/145 110/46/146 129/53/144
f 129/53/144 110/46/146 130/143/147
f 130/143/147 110/46/146 125/114/148
f 110/46/146 112/130/149 125/114/148
f 125/114/148 112/130/149 127/52/150
f 127/52/150 112/130/149 126/142/151
f 126/142/151 112/130/149 122/50/152
f 112/130/149 111/113/153 122/50/152
f 111/113/153 109/136/154 122/50/152
f 122/50/152 109/136/154 123/141/155
f 123/141/155 109/136/154 124/51/156
f 124/51/156 109/136/154 119/140/157
f 119/140/157 109/136/154 120/49/158
f 120/49/158 109/136/154 121/137/159
f 121/137/159 109/136/154 102/139/160
f 109/136/154 117/48/161 102/139/160
f 117/48/161 118/135/162 102/139/160
f 118/135/162 106/45/163 102/139/160
f 106/45/163 107/112/164 102/139/160
f 102/139/160 107/112/164 105/138/165
f 105/138/165 107/112/164 101/129/166
f 101/129/166 107/112/164 100/43/91
f 100/43/91 107/112/164 99/128/92
f 107/112/164 108/127/167 99/128/92
