# This file uses centimeters as units for non-parametric coordinates.

mtllib square_flag_icon.mtl
g default
v 12.347221 23.312752 0.000000
v 2.979416 23.713219 0.000000
v 7.931412 22.110558 0.000000
v 12.347221 16.604332 0.000000
v 7.519814 15.193352 0.000000
v 2.202850 16.827522 0.000000
v 1.058319 20.489388 0.000000
v 5.326889 15.907692 0.000000
v 12.347221 16.764046 0.000000
v 9.156166 15.401512 0.000000
v 11.070793 16.018684 0.000000
v 11.369576 16.143410 0.000000
v 11.709015 16.293098 0.000000
v 9.626839 15.522270 0.000000
v 10.432587 15.777306 0.000000
v 9.794373 15.570503 0.000000
v 7.241524 15.201118 0.000000
v 8.517952 15.276649 0.000000
v 7.879738 15.205116 0.000000
v 5.939926 15.521751 0.000000
v 6.603317 15.288124 0.000000
v 5.964920 15.509468 0.000000
v 12.347221 18.626717 0.000000
v 12.347221 17.384941 0.000000
v 12.347221 19.868507 0.000000
v 3.029999 16.764046 0.000000
v 1.470963 16.764046 0.000000
v 1.058319 16.764046 0.000000
v 4.050461 16.513008 0.000000
v 4.912888 16.143166 0.000000
v 4.688675 16.254372 0.000000
v 3.412262 16.692513 0.000000
v 2.135834 16.827049 0.000000
v 2.774048 16.797050 0.000000
v 1.058319 17.384956 0.000000
v 1.497620 16.768990 0.000000
v 1.058319 18.005836 0.000000
v 1.058319 19.247627 0.000000
v 5.326889 23.037300 0.000000
v 9.156166 22.226692 0.000000
v 9.747673 22.352074 0.000000
v 12.347221 22.352074 0.000000
v 12.347221 21.110283 0.000000
v 12.347221 21.731178 0.000000
v 11.070793 22.760750 0.000000
v 11.607475 22.973137 0.000000
v 12.347221 22.972954 0.000000
v 11.708992 23.016029 0.000000
v 10.432587 22.542793 0.000000
v 9.794373 22.363594 0.000000
v 6.464630 22.352074 0.000000
v 7.241524 22.157249 0.000000
v 8.517952 22.139061 0.000000
v 7.879738 22.110802 0.000000
v 6.603317 22.303352 0.000000
v 5.426651 22.972954 0.000000
v 5.965103 22.594505 0.000000
v 2.135834 23.638115 0.000000
v 4.050461 23.583275 0.000000
v 4.688675 23.370430 0.000000
v 3.412262 23.692589 0.000000
v 4.007065 23.593849 0.000000
v 2.774048 23.708687 0.000000
v 1.058319 22.352074 0.000000
v 1.058319 21.731178 0.000000
v 1.497681 23.479698 0.000000
v 1.915649 23.593849 0.000000
v 1.058319 24.924721 0.000000
v -1.058334 24.924721 0.000000
v 1.693329 26.246666 0.000000
v -1.693436 26.245979 0.000000
v -0.000610 27.940086 0.000000
v -1.685074 26.077415 0.000000
v 1.684937 26.077415 0.000000
v 1.497620 25.455498 0.000000
v 1.498154 25.456520 0.000000
v -1.498260 25.456520 0.000000
v 0.221191 27.925560 0.000000
v 1.632263 26.698296 0.000000
v 1.497620 27.037712 0.000000
v 1.310745 27.319191 0.000000
v 0.859406 27.706017 0.000000
v -1.632355 26.698296 0.000000
v -0.417007 27.888237 0.000000
v -1.310532 27.319191 0.000000
v -0.898010 27.682610 0.000000
v 1.058319 23.309715 0.000000
v 1.058334 16.603477 0.000000
v -1.058350 0.078804 0.000002
v 1.058334 21.110283 0.000000
v 1.058334 19.868507 0.000000
v 1.058334 18.626717 0.000000
v -0.898010 0.056404 0.000000
v -0.417007 0.012024 0.000000
v 0.000000 0.000000 0.000000
v 0.221191 0.003380 0.000000
v 1.058334 0.078789 0.000000
v 0.859406 0.051598 0.000000
vt 0.000000 0.834384
vt 0.555155 0.958354
vt 0.270904 0.812997
vt 0.057276 0.437063
vt 0.363140 0.398402
vt 0.669219 0.548976
vt 0.232401 0.397893
vt 0.454208 0.432618
vt 0.714179 0.552259
vt 0.597287 0.529032
vt 0.634922 0.541570
vt 0.727061 0.631471
vt 0.419578 0.894534
vt 0.158614 0.809798
vt 0.040299 0.827730
vt 0.115311 0.814498
vt 0.235121 0.808989
vt 0.606975 0.962026
vt 0.529143 0.952885
vt 0.690792 0.857042
vt 0.620741 0.961491
vt 0.879144 0.876852
vt 0.944799 0.876852
vt 0.859386 0.917911
vt 0.911997 0.970528
vt 0.859650 0.912652
vt 0.958478 0.893360
vt 0.865456 0.942489
vt 0.952684 0.951228
vt 0.120913 0.418621
vt 0.140205 0.413963
vt 0.181166 0.405531
vt 0.262061 0.395142
vt 0.301906 0.393769
vt 0.488968 0.462915
vt 0.739180 0.556273
vt 0.673284 0.549598
vt 0.733120 0.593879
vt 0.714969 0.706658
vt 0.033836 0.828923
vt 0.155676 0.810032
vt 0.385243 0.861495
vt 0.494083 0.941107
vt 0.702880 0.781846
vt 0.684748 0.894642
vt 0.098919 0.424397
vt 0.055735 0.446731
vt 0.221793 0.399190
vt 0.341235 0.395624
vt 0.379913 0.401570
vt 0.417707 0.413026
vt 0.455602 0.433604
vt 0.049734 0.484309
vt 0.037692 0.559467
vt 0.025689 0.634650
vt 0.524243 0.490099
vt 0.511746 0.481189
vt 0.560381 0.511958
vt 0.619743 0.537082
vt 0.712515 0.552298
vt 0.195638 0.808041
vt 0.013833 0.709861
vt 0.008093 0.747492
vt 0.002825 0.785133
vt 0.074610 0.821073
vt 0.000000 0.822222
vt 0.312216 0.822561
vt 0.274030 0.813516
vt 0.349433 0.837640
vt 0.357356 0.841944
vt 0.414163 0.889665
vt 0.491558 0.940043
vt 0.454982 0.920931
vt 0.567637 0.960081
vt 0.647163 0.958654
vt 0.865466 0.893365
vt 0.885279 0.963257
vt 0.939873 0.962522
vt 0.865482 0.893333
vt 0.905106 0.970077
vt 0.861277 0.931942
vt 0.871259 0.951236
vt 0.964297 0.912646
vt 0.964561 0.917883
vt 0.924933 0.968914
vt 0.962672 0.931937
vt 0.675425 0.952636
vt 0.740746 0.546542
vt 0.944799 0.876852
vt 0.879144 0.876852
vt 0.944802 0.106163
vt 0.786200 0.876772
vt 0.786200 0.824461
vt 0.854759 0.072010
vt 0.786200 0.824461
vt 0.786200 0.793443
vt 0.854760 0.071996
vt 0.786200 0.793443
vt 0.786200 0.773332
vt 0.854759 0.072010
vt 0.786200 0.773332
vt 0.786200 0.753221
vt 0.854776 0.072012
vt 0.786200 0.753221
vt 0.786200 0.733110
vt 0.854743 0.072008
vt 0.786200 0.733110
vt 0.786200 0.712999
vt 0.854777 0.071995
vt 0.786200 0.712999
vt 0.786200 0.692889
vt 0.854746 0.071992
vt 0.786200 0.692889
vt 0.786200 0.672778
vt 0.854773 0.072026
vt 0.786200 0.672778
vt 0.786200 0.652667
vt 0.854746 0.071993
vt 0.786200 0.652667
vt 0.786200 0.632556
vt 0.854761 0.071995
vt 0.786200 0.632556
vt 0.786200 0.612445
vt 0.854757 0.072022
vt 0.847612 0.802879
vt 0.846845 0.797214
vt 0.916804 0.190863
vt 0.916804 0.190863
vt 0.846845 0.797214
vt 0.910920 0.190116
vt 0.912295 0.071279
vt 0.786200 0.607272
vt 0.896668 0.068024
vt 0.881293 0.069842
vt 0.786200 0.607272
vt 0.867715 0.068270
vt 0.854415 0.069452
vt 0.786200 0.607272
vt 0.847214 0.069112
vt 0.959205 0.036908
vt 0.971470 0.035836
vt 0.968715 0.549608
vt 0.968715 0.549608
vt 0.971470 0.035836
vt 0.991269 0.034208
vn 0.000000 0.000000 -1.000000
vn 0.000000 0.000000 -1.000000
vn 0.000000 0.000000 -1.000000
vn 0.000000 0.000000 -1.000000
vn 0.000000 0.000000 -1.000000
vn 0.000000 0.000000 -1.000000
vn 0.000000 0.000000 -1.000000
vn 0.000000 0.000000 -1.000000
vn 0.000000 0.000000 -1.000000
vn 0.000000 0.000000 -1.000000
vn 0.000000 0.000000 -1.000000
vn 0.000000 0.000000 -1.000000
vn 0.000000 0.000000 -1.000000
vn 0.000000 0.000000 -1.000000
vn 0.000000 0.000000 -1.000000
vn 0.000000 0.000000 -1.000000
vn 0.000000 0.000000 -1.000000
vn 0.000000 0.000000 -1.000000
vn 0.000000 0.000000 -1.000000
vn 0.000000 0.000000 -1.000000
vn 0.000000 0.000000 -1.000000
vn 0.000000 0.000000 -1.000000
vn 0.000000 0.000000 -1.000000
vn 0.000000 0.000000 -1.000000
vn 0.000000 0.000000 -1.000000
vn 0.000000 0.000000 -1.000000
vn 0.000000 0.000000 -1.000000
vn 0.000000 0.000000 -1.000000
vn 0.000000 0.000000 -1.000000
vn 0.000000 0.000000 -1.000000
vn 0.000000 0.000000 -1.000000
vn 0.000000 0.000000 -1.000000
vn 0.000000 0.000000 -1.000000
vn 0.000000 0.000000 -1.000000
vn 0.000000 0.000000 -1.000000
vn 0.000000 0.000000 -1.000000
vn 0.000000 0.000000 -1.000000
vn 0.000000 0.000000 -1.000000
vn 0.000000 0.000000 -1.000000
vn 0.000000 0.000000 -1.000000
vn 0.000000 0.000000 -1.000000
vn 0.000000 0.000000 -1.000000
vn 0.000000 0.000000 -1.000000
vn 0.000000 0.000000 -1.000000
vn 0.000000 0.000000 -1.000000
vn 0.000000 0.000000 -1.000000
vn 0.000000 0.000000 -1.000000
vn 0.000000 0.000000 -1.000000
vn 0.000000 0.000000 -1.000000
vn 0.000000 0.000000 -1.000000
vn 0.000000 0.000000 -1.000000
vn 0.000000 0.000000 -1.000000
vn 0.000000 0.000000 -1.000000
vn 0.000000 0.000000 -1.000000
vn 0.000000 0.000000 -1.000000
vn 0.000000 0.000000 -1.000000
vn 0.000000 0.000000 -1.000000
vn 0.000000 0.000000 -1.000000
vn 0.000000 0.000000 -1.000000
vn 0.000000 0.000000 -1.000000
vn 0.000000 0.000000 -1.000000
vn 0.000000 0.000000 -1.000000
vn 0.000000 0.000000 -1.000000
vn 0.000000 0.000000 -1.000000
vn 0.000000 0.000000 -1.000000
vn 0.000000 0.000000 -1.000000
vn 0.000000 0.000000 -1.000000
vn 0.000000 0.000000 -1.000000
vn 0.000000 0.000000 -1.000000
vn 0.000000 0.000000 -1.000000
vn 0.000000 0.000000 -1.000000
vn 0.000000 0.000000 -1.000000
vn 0.000000 0.000000 -1.000000
vn 0.000000 0.000000 -1.000000
vn 0.000000 0.000000 -1.000000
vn 0.000000 0.000000 -1.000000
vn 0.000000 0.000000 -1.000000
vn 0.000000 0.000000 -1.000000
vn 0.000000 0.000000 -1.000000
vn 0.000000 0.000000 -1.000000
vn 0.000000 0.000000 -1.000000
vn 0.000000 0.000000 -1.000000
vn 0.000000 0.000000 -1.000000
vn 0.000000 0.000000 -1.000000
vn 0.000000 0.000000 -1.000000
vn 0.000000 0.000000 -1.000000
vn 0.000000 0.000000 -1.000000
vn 0.000000 0.000000 -1.000000
vn 0.000000 -0.000000 -1.000000
vn -0.000000 -0.000000 -1.000000
vn -0.000000 -0.000000 -1.000000
vn -0.000001 0.000000 -1.000000
vn -0.000001 0.000000 -1.000000
vn -0.000001 0.000000 -1.000000
vn -0.000001 -0.000000 -1.000000
vn -0.000001 -0.000000 -1.000000
vn -0.000001 -0.000000 -1.000000
vn -0.000001 0.000000 -1.000000
vn -0.000001 -0.000000 -1.000000
vn -0.000001 0.000000 -1.000000
vn -0.000001 -0.000000 -1.000000
vn -0.000001 0.000000 -1.000000
vn -0.000001 0.000000 -1.000000
vn -0.000001 -0.000000 -1.000000
vn -0.000001 -0.000000 -1.000000
vn -0.000012 0.000001 -1.000000
vn -0.000012 0.000001 -1.000000
vn -0.000012 0.000001 -1.000000
vn 0.000000 0.000000 -1.000000
vn 0.000000 0.000000 -1.000000
vn 0.000000 0.000000 -1.000000
vn 0.000000 0.000000 -1.000000
vn 0.000000 0.000000 -1.000000
vn 0.000000 0.000000 -1.000000
vn 0.000000 0.000000 -1.000000
vn 0.000000 0.000000 -1.000000
vn 0.000000 0.000000 -1.000000
vn 0.000000 0.000000 -1.000000
vn 0.000000 0.000000 -1.000000
vn 0.000000 0.000000 -1.000000
vn 0.000000 0.000000 -1.000000
vn 0.000000 0.000000 -1.000000
vn 0.000000 0.000000 -1.000000
s 1
g square_flag_icon
usemtl initialShadingGroup
f 1/1/1 47/66/2 48/40/3
f 88/88/4 28/36/5 27/9/6
f 28/36/5 35/38/7 27/9/6
f 47/66/2 42/64/8 48/40/3
f 48/40/3 42/64/8 46/15/9
f 87/87/10 66/75/11 64/45/12
f 27/9/6 35/38/7 36/60/13
f 4/4/14 13/46/15 9/47/16
f 46/15/9 42/64/8 45/65/17
f 42/64/8 44/63/18 45/65/17
f 36/60/13 35/38/7 33/37/19
f 35/38/7 37/12/20 33/37/19
f 45/65/17 44/63/18 49/16/21
f 44/63/18 43/62/22 49/16/21
f 9/47/16 13/46/15 24/53/23
f 66/75/11 67/21/24 64/45/12
f 2/2/25 61/19/26 63/74/27
f 62/43/28 59/72/29 61/19/26
f 60/73/30 39/13/31 59/72/29
f 56/71/32 57/42/33 39/13/31
f 12/30/34 11/31/35 13/46/15
f 15/32/36 16/48/37 11/31/35
f 14/7/38 10/33/39 16/48/37
f 18/34/40 19/49/41 10/33/39
f 5/5/42 17/50/43 19/49/41
f 21/51/44 22/8/45 17/50/43
f 20/52/46 8/35/47 22/8/45
f 58/18/48 63/74/27 67/21/24
f 49/16/21 43/62/22 50/41/49
f 43/62/22 25/55/50 50/41/49
f 50/41/49 25/55/50 41/14/51
f 41/14/51 25/55/50 40/61/52
f 25/55/50 23/54/53 40/61/52
f 40/61/52 23/54/53 53/17/54
f 33/37/19 37/12/20 6/6/55
f 67/21/24 63/74/27 64/45/12
f 64/45/12 63/74/27 65/20/56
f 13/46/15 11/31/35 24/53/23
f 22/8/45 8/35/47 17/50/43
f 61/19/26 59/72/29 63/74/27
f 63/74/27 59/72/29 65/20/56
f 65/20/56 59/72/29 7/44/57
f 59/72/29 39/13/31 7/44/57
f 39/13/31 57/42/33 7/44/57
f 7/44/57 57/42/33 38/39/58
f 57/42/33 51/70/59 38/39/58
f 38/39/58 51/70/59 37/12/20
f 37/12/20 51/70/59 6/6/55
f 6/6/55 51/70/59 34/11/60
f 34/11/60 51/70/59 26/59/61
f 26/59/61 51/70/59 32/10/62
f 32/10/62 51/70/59 29/58/63
f 29/58/63 51/70/59 31/56/64
f 51/70/59 55/69/65 31/56/64
f 55/69/65 52/67/66 31/56/64
f 31/56/64 52/67/66 30/57/67
f 30/57/67 52/67/66 8/35/47
f 8/35/47 52/67/66 17/50/43
f 52/67/66 54/68/68 17/50/43
f 17/50/43 54/68/68 19/49/41
f 19/49/41 54/68/68 10/33/39
f 54/68/68 3/3/69 10/33/39
f 3/3/69 53/17/54 10/33/39
f 10/33/39 53/17/54 16/48/37
f 16/48/37 53/17/54 11/31/35
f 11/31/35 53/17/54 24/53/23
f 53/17/54 23/54/53 24/53/23
s 13
f 68/22/70 69/23/71 75/79/72
f 69/23/71 77/27/73 75/79/72
f 77/27/73 73/83/74 75/79/72
f 73/83/74 71/84/75 75/79/72
f 71/84/75 83/86/76 75/79/72
f 83/86/76 85/29/77 75/79/72
f 85/29/77 86/78/78 75/79/72
f 86/78/78 84/85/79 75/79/72
f 84/85/79 72/25/80 75/79/72
f 72/25/80 78/80/81 75/79/72
f 78/80/81 82/77/82 75/79/72
f 82/77/82 81/82/83 75/79/72
f 81/82/83 80/28/84 75/79/72
f 80/28/84 79/81/85 75/79/72
f 75/79/72 79/81/85 76/76/86
f 70/24/87 74/26/88 79/81/85
f 79/81/85 74/26/88 76/76/86
s 14
f 69/89/89 68/90/90 89/91/91
f 68/92/90 87/93/92 89/94/91
s 15
f 87/95/93 64/96/94 89/97/95
f 64/98/94 65/99/96 89/100/95
f 65/101/96 90/102/97 89/103/95
f 90/104/97 7/105/98 89/106/95
f 7/107/98 91/108/99 89/109/95
f 91/110/99 38/111/100 89/112/95
f 38/113/100 92/114/101 89/115/95
f 92/116/101 37/117/102 89/118/95
f 37/119/102 35/120/103 89/121/95
f 35/122/103 28/123/104 89/124/95
f 28/125/104 88/126/105 89/127/95
s off
f 89/128/106 88/129/107 93/130/108
f 93/131/109 88/132/110 94/133/111
f 94/134/112 88/135/113 95/136/114
f 95/137/115 88/138/116 96/139/117
f 97/140/118 98/141/119 88/142/120
f 88/143/121 98/144/122 96/145/123
